<svg width="215" height="215" fill="none" xmlns="http://www.w3.org/2000/svg"><g clip-path="url(#a)" fill="#B62B2B" fill-opacity=".2"><path d="m168 145 1-10-60-2 58 14 1-2ZM105 120l50-32v-1l-8-9a2108 2108 0 0 0-42 42ZM96 115l21-57-12-3h-1a1145 1145 0 0 1-8 60ZM107 123c18-8 33-13 56-21l-1-2-5-9-50 32ZM108 127c20-5 35-7 59-10l-2-9-1-3-56 21v1ZM108 137c19 7 33 14 55 24l1-1 3-10-59-14v1ZM109 130c20 0 35 0 60 2v-2a77 77 0 0 0-1-10c-25 3-39 6-59 10ZM47 68l-1 1 37 48-27-54-9 5ZM80 119c-12-17-21-29-37-48l-7 7-2 1a794 794 0 0 1 46 40ZM89 114c0-20-2-35-4-60l-3 1-9 1 16 58ZM86 115a771 771 0 0 0-19-57l-7 3h-1l27 54ZM101 146l16 15c14 16 26 28 28 27a72 72 0 0 0 9-11l-49-35-4 4ZM24 94a78 78 0 0 0-6 13c-1 2 16 8 36 14l20 8 2-5-52-30ZM162 164c-23-10-36-17-55-24l49 35 1-2 5-9ZM78 121 32 82l-6 8-1 1 53 30ZM93 114l8-59-11-1h-1l3 60h1ZM99 116l33-50 3 1-33 51 43-43 2 2-2-1a78 78 0 0 0-25-17h-2l2 1-21 56ZM104 138l1-2v-9l-1-2-2-2v-1a15 15 0 0 0-2-2h-1l-1-1a12 12 0 0 0-3-1 15 15 0 0 0-5 0h-3l-3 1v1l-2 1-2 2-1 1v2l-2 5c0 5 2 10 7 12a14 14 0 0 0 18-2l1-2 1-1Z"/></g><defs><clipPath id="a"><path fill="#fff" transform="rotate(33 42 143)" d="M0 0h155v155H0z"/></clipPath></defs></svg>