<svg width="57" height="56" fill="none" xmlns="http://www.w3.org/2000/svg"><path d="m38 23 1 1v-2 1h-1Z" fill="#BE0026"/><path d="M54 18a30 30 0 0 0 0-2h-1v-1l-1-2-1-1-7-8h-2V3h-2l-1-1-2-1h-2l-7-1h-4l-1 1a28 28 0 0 0-3 0v1h-2l-1 1h-2a27 27 0 0 0-2 2l-3 2v1H9l-2 2a29 29 0 0 0-1 1v1H5v2a28 28 0 0 0-2 3l-2 7v6a27 27 0 0 0 0 3h1v3l1 1v2h1v2l1 1 1 1a28 28 0 0 0 48-25ZM40 52a26 26 0 0 1-32-8h1v-4l1-1v-1l-1-1-1-1H7a500 500 0 0 1-1-2l-1-1v-2l-1-1-1-2v-2l-1-1 1-3v1h1l-1-1v-2l3-6 1-1v-1h4l-1-1h1v-1h3V9l1-2h-1l1-1 1-1-1 1-1 1h-1l-2 1 2-1V6l3-2h1v1l-1 1h2l2-1h1l-1-1 1-1h2l-1 1-1 1-1 1h-1l-1 1v1h-1 1l-1 1h1V8h2l1-1h3l1-1V5h1V4a188 188 0 0 0 1 0h4V3h1a146 146 0 0 1 1-1h3-1v1l1 1v3h-1v1h-1V7h-4v1a89 89 0 0 0-1 1l-1 1v2l1-1v1h1v1-1h1v-1h-1v-1l1-1h1a170 170 0 0 1-1 1h1v1l1-1a170 170 0 0 1 0 1h-1v2h-2v1-1h-1v-1h-1l1 1h-1v1h-1l-1 1h-2v1h1v2h-2l-1 1v1h1v1h2v-2h1l1-1h1l1-1v1h1v1h1v1h1v-1h-1v-1h-1a81 81 0 0 0 0-1h1v1h1v1h1l1 1v-1h1v-1h1-1l1-1h1l1-1a272 272 0 0 1 2 1v1h-4a167 167 0 0 0-1 1l1 1v1l1-1h2v4h1v1l1 1v1h1l1 1v1a2666 2666 0 0 1 2 1l2-2 1-1v-2a235 235 0 0 0 0-1l-1-1-1 1-1-1v1-1l-1-1h1v1h1a150 150 0 0 0 1-1v1h1l1-1h2l1 1v1l1 1 1 1v2-8c4 12-2 26-14 32Z" fill="#BE0026"/><path d="M24 9V8h-2 1l-1 1h2ZM23 14h1v-1h1l-1-1v1h-1v1Z" fill="#BE0026"/><path d="M24 15h1v-1h2-1 1-1v-3h-1v3l-1 1ZM43 46h1l1-1v-1l1-1v-2 1h-1v1h-1v2h-1v1ZM33 51l-1-1v-1l-1-2-1-2v-1l1-1v-1l-1-1-1-2v-3h-2l-1-1-2 1h-3l-2-2-1-1h-2l1-2 1-2v-3h1v-1l1-1h1l1-2 1-1h1v1l1-1h5l-1 1h1l1 1h1l1 1v-1h5l2 3 1 1v1l1 1v1h1l1 1 1 1v-1h1l1-1v2l-1 2-1 2-2 2v5l-1 1-1 1h-1v2h-1v1l-1 1-2 1-1 1h-2ZM31 20h-1v1h1v-1M37 21h1v1h-1M28 19h1" fill="#BE0026"/></svg>