<svg width="186" height="178" viewBox="0 0 186 178" fill="none" xmlns="http://www.w3.org/2000/svg">
<path d="M174.85 104.879C164.653 107.966 159.541 109.382 149.328 111.985C148.357 112.232 146.962 112.982 146.224 113.653C133.676 125.07 127.173 130.547 113.723 141.027C112.929 141.646 111.988 142.859 111.626 143.741C107.808 152.955 105.777 157.556 101.444 166.705C101.027 167.574 101.378 167.802 102.219 167.205C105.88 164.61 107.697 163.294 111.301 160.635C112.132 160.022 113.285 160.081 113.89 160.772C115.986 163.175 117.032 164.374 119.128 166.777C119.728 167.467 120.898 167.517 121.738 166.892C143.15 150.869 153.358 142.28 172.645 124.055C173.399 123.341 173.463 122.248 172.788 121.625C170.442 119.432 169.271 118.334 166.924 116.143C166.254 115.516 166.304 114.434 167.047 113.726C170.385 110.529 172.037 108.913 175.313 105.646C176.031 104.929 175.824 104.585 174.85 104.879Z" fill="#B62B2B" fill-opacity="0.19"/>
<path d="M72.4763 115.832C73.233 115.277 74.3312 115.382 74.9346 116.069C77.0279 118.47 78.0734 119.668 80.172 122.073C80.772 122.764 81.8822 122.859 82.6507 122.289C102.192 107.661 111.513 99.8196 129.116 83.1829C129.804 82.5303 129.813 81.4926 129.144 80.8608C126.799 78.6677 125.633 77.5752 123.28 75.3844C122.608 74.7545 122.612 73.7217 123.283 73.0786C126.327 70.1631 127.832 68.6911 130.816 65.7143C131.471 65.0601 131.261 64.7194 130.342 64.9617C120.72 67.4772 115.902 68.6169 106.282 70.6672C105.366 70.8633 104.075 71.516 103.406 72.1288C91.9942 82.5116 86.0754 87.4967 73.8444 97.027C73.1225 97.5908 72.2923 98.7195 71.9897 99.5502C68.8222 108.27 67.1154 112.626 63.4489 121.303C63.0968 122.131 63.4359 122.368 64.2029 121.819C67.5367 119.455 69.1947 118.259 72.4763 115.832Z" fill="#B62B2B" fill-opacity="0.19"/>
<path d="M91.8868 138.235C92.6806 137.649 93.8052 137.732 94.4108 138.422C96.5041 140.823 97.5498 142.022 99.6458 144.424C100.248 145.117 101.387 145.188 102.19 144.589C122.672 129.266 132.434 121.049 150.876 103.617C151.602 102.934 151.634 101.867 150.962 101.242C148.617 99.0484 147.445 97.9555 145.098 95.7597C144.426 95.135 144.456 94.0803 145.156 93.403C148.355 90.347 149.929 88.8017 153.055 85.6807C153.747 84.9954 153.538 84.6492 152.595 84.916C142.682 87.721 137.727 88.9995 127.802 91.3257C126.857 91.5513 125.52 92.2475 124.814 92.891C112.838 103.787 106.624 109.021 93.7823 119.027C93.0206 119.615 92.1417 120.79 91.8056 121.644C88.3132 130.614 86.4409 135.09 82.445 144.001C82.0646 144.853 82.4063 145.083 83.2132 144.51C86.7109 142.033 88.4455 140.777 91.8868 138.235Z" fill="#B62B2B" fill-opacity="0.19"/>
<path d="M45.9502 99.9294C49.1252 97.6793 50.7015 96.5373 53.827 94.2317C54.5463 93.6995 55.6145 93.828 56.216 94.5144C58.306 96.9108 59.3526 98.1101 61.4452 100.508C62.0443 101.198 63.1269 101.314 63.8546 100.769C66.5272 98.7714 67.8561 97.76 70.4865 95.7196C83.7058 85.4883 90.0866 80.1146 102.348 68.8869C104.675 66.7569 105.826 65.6852 108.113 63.5249C108.765 62.9072 108.757 61.8909 108.083 61.2649C105.744 59.0782 104.572 57.9846 102.229 55.7977C101.561 55.1664 101.541 54.1598 102.174 53.5492C105.069 50.7745 106.506 49.3751 109.341 46.5439C109.969 45.9177 109.74 45.5257 108.828 45.6755C89.6044 48.7474 79.3498 49.909 61.4337 51.0621L38.2824 32.2899C37.6259 31.7559 37.497 31.8644 37.9994 32.5282L55.6529 55.9304C52.5924 72.4432 50.3165 81.8343 45.0738 99.3667C44.8291 100.192 45.2213 100.446 45.9502 99.9294ZM67.658 62.9084C71.0156 60.0808 76.2061 60.3478 79.2588 63.503C82.3111 66.6577 82.0641 71.5048 78.709 74.3304C75.3514 77.158 70.158 76.8934 67.1053 73.7382C64.0531 70.5827 64.3005 65.736 67.658 62.9084Z" fill="#B62B2B" fill-opacity="0.19"/>
</svg>
