<svg width="432" height="169" viewBox="0 0 432 169" fill="none" xmlns="http://www.w3.org/2000/svg">
<path d="M132.5 147.5C122.333 149.833 85.3 154.6 18.5 155C16 155.017 -16.5 167.5 13.5 161C43.5 154.5 69 166 106 159C143 152 168.5 155 161.5 152C155.9 149.6 139.833 148 132.5 147.5Z" fill="#BE0026" stroke="#BE0026"/>
<path d="M416.15 1.62921C415.803 2.69274 388.114 21.685 378.209 27.6737C368.24 33.6547 342.01 47.8699 340.913 47.8502C340.543 47.8338 340.247 47.5045 339.83 46.5592C339.113 44.9344 338.01 44.2845 336.816 44.7988C335.647 45.3022 335.453 46.3701 336.174 48.415C336.527 49.3526 336.727 50.2159 336.651 50.3188C336.463 50.6459 329.013 54.5928 313.363 62.6344C308.679 65.0384 303.145 67.9141 301.051 68.9919C285.997 76.8113 265.266 87.1114 242.221 98.1971C232.128 103.072 211.51 111.847 197.874 117.122C186.767 121.414 182.827 122.9 168.324 128.267C160.393 131.191 145.673 136.477 138.63 138.947C136.304 139.774 132.274 141.193 129.681 142.099C120.782 145.229 107.675 149.784 103.899 151.094C101.814 151.781 100.086 152.455 100.036 152.547C99.9373 152.941 103.636 155.637 105.686 156.652C109.582 158.56 108.461 158.692 120.415 155.019C136.363 150.119 159.249 142.371 179.612 135.007C185.294 132.946 194.292 129.563 204.396 125.738C213.127 122.435 238.66 111.438 247.459 107.191C264.714 98.88 273.068 94.7897 283.135 89.7158C285.737 88.4191 290.066 86.2383 292.782 84.8573C295.499 83.4764 299.548 81.416 301.795 80.2725C304.042 79.129 307.761 77.2108 310.045 76.0159C318.55 71.6499 332.638 64.3164 337.715 61.6377C339.416 60.7645 340.888 60.0598 341.055 60.0937C341.182 60.109 341.558 60.7556 341.871 61.4646C342.353 62.5576 342.688 62.9056 343.585 63.3629C344.956 64.0029 345.694 63.7556 346.076 62.4306C346.324 61.6209 346.268 61.1526 345.695 59.8528C345.252 58.8484 345.053 58.0551 345.19 57.7499C345.29 57.496 348.588 55.5133 352.775 53.2176C368.826 44.3707 383.073 36.2308 387.928 33.1199C393.837 29.3799 403.719 22.3813 414.751 14.2196C418.197 11.681 421.225 9.56812 421.531 9.57686C422.296 9.52868 422.898 8.49578 422.435 7.9925C422.216 7.77039 421.051 6.022 419.847 4.11496C417.775 0.85887 417.633 0.673966 416.985 0.847963C416.641 0.960675 416.249 1.30534 416.15 1.62921Z" fill="#B62B2B"/>
</svg>
