<svg width="172" height="69" viewBox="0 0 172 69" fill="none" xmlns="http://www.w3.org/2000/svg">
<g clip-path="url(#clip0_3705_185)">
<path d="M36.7829 15.3143V7.65842C36.7829 6.81284 36.0971 6.12726 35.251 6.12726H33.719V1.53375C33.719 0.68816 33.0332 0.0025787 32.187 0.0025787C30.0182 0.0025787 26.6967 -0.163553 22.7976 2.1711C20.3739 1.45001 18.6597 1.53375 16.8674 1.53375C16.0213 1.53375 15.3354 2.21933 15.3354 3.06492V6.12726H13.8035C12.9573 6.12726 12.2715 6.81284 12.2715 7.65842V15.3143C12.2715 21.5501 16.9579 26.7123 22.9952 27.4681V47.4688C22.9952 48.3144 23.6811 49 24.5272 49C25.3733 49 26.0592 48.3144 26.0592 47.4688V42.1097H28.3571C33.0031 42.1097 36.7829 38.3319 36.7829 33.6883V31.3915C36.7829 30.546 36.0971 29.8604 35.251 29.8604H31.4211C29.3859 29.8604 27.517 30.5853 26.0592 31.7903V27.4674C32.0876 26.7212 36.7829 21.5847 36.7829 15.3143V15.3143ZM33.719 15.3143C33.719 18.0393 32.5133 20.5004 30.6076 22.1879C30.6377 21.9422 30.6551 21.6926 30.6551 21.4389C30.6551 17.5614 29.2047 14.0165 26.8187 11.3159C28.8415 9.93633 31.2399 9.18959 33.719 9.18959V15.3143ZM30.6551 3.06492V6.43617C30.372 6.49378 30.0908 6.55952 29.812 6.63292C28.8182 5.52101 27.6847 4.57369 26.4472 3.8082C27.7848 3.31938 29.2049 3.06492 30.6551 3.06492V3.06492ZM18.3994 4.59609C21.4429 4.59609 24.3985 5.70685 26.6972 7.82915C25.9385 8.22046 25.2111 8.67665 24.5227 9.1939C22.7415 7.85547 20.6602 6.89562 18.3994 6.43512V4.59609ZM15.3354 15.3143V9.18959C22.0932 9.18959 27.5911 14.6846 27.5911 21.4389C27.5911 23.15 26.1774 24.5443 24.4467 24.4998C19.0647 24.367 15.3354 20.0933 15.3354 15.3143ZM31.4211 32.9227H33.719V33.6883C33.719 36.6433 31.3137 39.0474 28.3571 39.0474H26.0592V38.2818C26.0592 35.3268 28.4646 32.9227 31.4211 32.9227Z" fill="white"/>
</g>
<path d="M56.0582 26.8411V30H46.9794V26.8411H56.0582ZM48.4418 12.9655V30H44.3353V12.9655H48.4418ZM54.8882 19.7278V22.7814H46.9794V19.7278H54.8882ZM56.0933 12.9655V16.1361H46.9794V12.9655H56.0933ZM61.6265 12.9655L64.411 18.6281L67.1955 12.9655H71.8753L67.1253 21.4126L72.004 30H67.2774L64.411 24.2321L61.5446 30H56.8063L61.6967 21.4126L56.935 12.9655H61.6265ZM80.4738 24.2204H76.2386V21.0499H80.4738C81.051 21.0499 81.519 20.9524 81.8778 20.7574C82.2365 20.5624 82.4978 20.2933 82.6616 19.9501C82.8332 19.5991 82.919 19.2053 82.919 18.7685C82.919 18.3005 82.8332 17.8676 82.6616 17.4698C82.4978 17.072 82.2365 16.7523 81.8778 16.5105C81.519 16.2609 81.051 16.1361 80.4738 16.1361H77.7829V30H73.6764V12.9655H80.4738C81.8388 12.9655 83.0126 13.2151 83.9954 13.7143C84.9859 14.2135 85.7464 14.8998 86.2768 15.7734C86.8071 16.6392 87.0723 17.6297 87.0723 18.7451C87.0723 19.8448 86.8071 20.8042 86.2768 21.6232C85.7464 22.4421 84.9859 23.0817 83.9954 23.5419C83.0126 23.9943 81.8388 24.2204 80.4738 24.2204ZM100.854 26.8411V30H92.2429V26.8411H100.854ZM93.7053 12.9655V30H89.5988V12.9655H93.7053ZM116.566 21.1435V21.8337C116.566 23.1363 116.382 24.3062 116.016 25.3436C115.657 26.3732 115.146 27.2545 114.483 27.9877C113.82 28.7131 113.036 29.2707 112.131 29.6607C111.227 30.0429 110.228 30.234 109.136 30.234C108.037 30.234 107.03 30.0429 106.118 29.6607C105.213 29.2707 104.425 28.7131 103.755 27.9877C103.092 27.2545 102.577 26.3732 102.21 25.3436C101.851 24.3062 101.672 23.1363 101.672 21.8337V21.1435C101.672 19.8409 101.851 18.671 102.21 17.6336C102.577 16.5963 103.088 15.7149 103.743 14.9895C104.406 14.2564 105.19 13.6987 106.095 13.3165C107.007 12.9265 108.013 12.7315 109.113 12.7315C110.205 12.7315 111.203 12.9265 112.108 13.3165C113.021 13.6987 113.808 14.2564 114.471 14.9895C115.134 15.7149 115.649 16.5963 116.016 17.6336C116.382 18.671 116.566 19.8409 116.566 21.1435ZM112.401 21.8337V21.1201C112.401 20.2777 112.326 19.5367 112.178 18.8972C112.038 18.2498 111.827 17.7077 111.546 17.2709C111.266 16.8342 110.919 16.5066 110.505 16.2882C110.1 16.062 109.636 15.9489 109.113 15.9489C108.567 15.9489 108.091 16.062 107.686 16.2882C107.28 16.5066 106.941 16.8342 106.668 17.2709C106.395 17.7077 106.188 18.2498 106.048 18.8972C105.915 19.5367 105.849 20.2777 105.849 21.1201V21.8337C105.849 22.6683 105.915 23.4093 106.048 24.0567C106.188 24.6962 106.395 25.2383 106.668 25.6829C106.949 26.1275 107.292 26.4628 107.697 26.689C108.111 26.9152 108.59 27.0283 109.136 27.0283C109.659 27.0283 110.123 26.9152 110.529 26.689C110.934 26.4628 111.273 26.1275 111.546 25.6829C111.827 25.2383 112.038 24.6962 112.178 24.0567C112.326 23.4093 112.401 22.6683 112.401 21.8337ZM119.01 12.9655H125.714C127.024 12.9655 128.163 13.1605 129.13 13.5505C130.097 13.9405 130.842 14.5177 131.365 15.282C131.895 16.0464 132.16 16.9901 132.16 18.1133C132.16 19.0883 132.008 19.9033 131.704 20.5585C131.4 21.2137 130.975 21.7557 130.429 22.1847C129.891 22.6059 129.263 22.953 128.545 23.226L127.2 23.9865H121.572L121.549 20.8159H125.714C126.237 20.8159 126.669 20.7223 127.013 20.5351C127.356 20.3479 127.613 20.0827 127.785 19.7395C127.964 19.3885 128.054 18.9713 128.054 18.4877C128.054 17.9963 127.964 17.5751 127.785 17.2241C127.605 16.8732 127.34 16.6041 126.989 16.4169C126.646 16.2297 126.221 16.1361 125.714 16.1361H123.117V30H119.01V12.9655ZM128.335 30L124.567 22.4655L128.92 22.4421L132.734 29.8245V30H128.335ZM146.679 26.8411V30H137.6V26.8411H146.679ZM139.062 12.9655V30H134.956V12.9655H139.062ZM145.509 19.7278V22.7814H137.6V19.7278H145.509ZM146.714 12.9655V16.1361H137.6V12.9655H146.714ZM48.6992 31.9655V49H44.6044V31.9655H48.6992ZM66.1308 31.9655V49H62.036L56.0108 38.4002V49H51.9042V31.9655H56.0108L62.036 42.5653V31.9655H66.1308ZM74.5773 49H70.7983L70.8217 45.8411H74.5773C75.3572 45.8411 76.0163 45.6539 76.5545 45.2796C77.1005 44.9052 77.5138 44.3475 77.7946 43.6065C78.0832 42.8578 78.2275 41.9374 78.2275 40.8454V40.1084C78.2275 39.2894 78.1456 38.5718 77.9818 37.9557C77.8258 37.3317 77.5918 36.813 77.2798 36.3996C76.9679 35.9784 76.5779 35.6626 76.1099 35.452C75.6497 35.2414 75.1193 35.1361 74.5188 35.1361H70.7281V31.9655H74.5188C75.6731 31.9655 76.73 32.1644 77.6893 32.5622C78.6565 32.9522 79.4911 33.5138 80.193 34.2469C80.9028 34.9723 81.4488 35.8342 81.831 36.8325C82.2209 37.8231 82.4159 38.9228 82.4159 40.1318V40.8454C82.4159 42.0466 82.2209 43.1463 81.831 44.1447C81.4488 45.1431 80.9067 46.0049 80.2047 46.7303C79.5028 47.4557 78.6721 48.0172 77.7127 48.415C76.7612 48.805 75.716 49 74.5773 49ZM73.1499 31.9655V49H69.0434V31.9655H73.1499ZM99.286 40.1435V40.8337C99.286 42.1363 99.1027 43.3062 98.7361 44.3436C98.3773 45.3732 97.8665 46.2545 97.2035 46.9877C96.5405 47.7131 95.7567 48.2707 94.8519 48.6607C93.9471 49.0429 92.9488 49.234 91.8568 49.234C90.7571 49.234 89.7509 49.0429 88.8383 48.6607C87.9336 48.2707 87.1458 47.7131 86.475 46.9877C85.8121 46.2545 85.2973 45.3732 84.9307 44.3436C84.5719 43.3062 84.3925 42.1363 84.3925 40.8337V40.1435C84.3925 38.8409 84.5719 37.671 84.9307 36.6336C85.2973 35.5963 85.8082 34.7149 86.4633 33.9895C87.1263 33.2564 87.9102 32.6987 88.8149 32.3165C89.7275 31.9265 90.7337 31.7315 91.8334 31.7315C92.9254 31.7315 93.9237 31.9265 94.8285 32.3165C95.7411 32.6987 96.5288 33.2564 97.1918 33.9895C97.8548 34.7149 98.3695 35.5963 98.7361 36.6336C99.1027 37.671 99.286 38.8409 99.286 40.1435ZM95.121 40.8337V40.1201C95.121 39.2777 95.0469 38.5367 94.8987 37.8972C94.7583 37.2498 94.5477 36.7077 94.2669 36.2709C93.9861 35.8342 93.639 35.5066 93.2257 35.2882C92.8201 35.062 92.356 34.9489 91.8334 34.9489C91.2874 34.9489 90.8117 35.062 90.4061 35.2882C90.0005 35.5066 89.6612 35.8342 89.3882 36.2709C89.1152 36.7077 88.9085 37.2498 88.7681 37.8972C88.6356 38.5367 88.5693 39.2777 88.5693 40.1201V40.8337C88.5693 41.6683 88.6356 42.4093 88.7681 43.0567C88.9085 43.6962 89.1152 44.2383 89.3882 44.6829C89.669 45.1275 90.0122 45.4628 90.4178 45.689C90.8312 45.9152 91.3108 46.0283 91.8568 46.0283C92.3794 46.0283 92.8435 45.9152 93.2491 45.689C93.6546 45.4628 93.9939 45.1275 94.2669 44.6829C94.5477 44.2383 94.7583 43.6962 94.8987 43.0567C95.0469 42.4093 95.121 41.6683 95.121 40.8337ZM115.957 31.9655V49H111.862L105.837 38.4002V49H101.731V31.9655H105.837L111.862 42.5653V31.9655H115.957ZM130.593 45.8411V49H121.514V45.8411H130.593ZM122.976 31.9655V49H118.87V31.9655H122.976ZM129.423 38.7278V41.7814H121.514V38.7278H129.423ZM130.628 31.9655V35.1361H121.514V31.9655H130.628ZM141.367 44.4723C141.367 44.2071 141.328 43.9692 141.25 43.7586C141.172 43.5402 141.028 43.3374 140.817 43.1502C140.607 42.9631 140.303 42.7759 139.905 42.5887C139.515 42.3937 139 42.1909 138.361 41.9803C137.612 41.7307 136.89 41.4499 136.196 41.1379C135.502 40.8181 134.882 40.4477 134.336 40.0265C133.79 39.5975 133.357 39.0983 133.037 38.5289C132.717 37.9518 132.558 37.281 132.558 36.5166C132.558 35.7835 132.721 35.1244 133.049 34.5394C133.377 33.9466 133.833 33.4436 134.418 33.0302C135.011 32.609 135.705 32.2892 136.5 32.0708C137.296 31.8446 138.166 31.7315 139.109 31.7315C140.357 31.7315 141.457 31.9499 142.409 32.3867C143.368 32.8157 144.117 33.428 144.655 34.2235C145.201 35.0113 145.474 35.9434 145.474 37.0197H141.391C141.391 36.5907 141.301 36.2124 141.122 35.8849C140.95 35.5573 140.689 35.2999 140.338 35.1127C139.987 34.9255 139.546 34.8319 139.016 34.8319C138.501 34.8319 138.068 34.9099 137.717 35.0659C137.366 35.2219 137.101 35.4325 136.921 35.6977C136.742 35.955 136.652 36.2397 136.652 36.5517C136.652 36.8091 136.723 37.0431 136.863 37.2537C137.011 37.4565 137.218 37.6476 137.483 37.827C137.756 38.0064 138.084 38.178 138.466 38.3417C138.856 38.5055 139.293 38.6654 139.776 38.8214C140.681 39.11 141.484 39.4337 142.186 39.7925C142.896 40.1435 143.493 40.5452 143.976 40.9975C144.468 41.4421 144.838 41.9491 145.088 42.5185C145.345 43.0878 145.474 43.7313 145.474 44.4489C145.474 45.2133 145.326 45.8918 145.029 46.4846C144.733 47.0774 144.308 47.5805 143.754 47.9938C143.2 48.3994 142.537 48.7075 141.765 48.9181C140.993 49.1287 140.131 49.234 139.179 49.234C138.306 49.234 137.444 49.1248 136.594 48.9064C135.752 48.6802 134.987 48.337 134.301 47.8768C133.614 47.4089 133.065 46.8122 132.651 46.0868C132.246 45.3537 132.043 44.484 132.043 43.4778H136.161C136.161 43.977 136.227 44.3982 136.36 44.7414C136.492 45.0846 136.687 45.3615 136.945 45.572C137.202 45.7748 137.518 45.923 137.893 46.0166C138.267 46.1024 138.696 46.1453 139.179 46.1453C139.702 46.1453 140.123 46.0712 140.443 45.923C140.763 45.767 140.997 45.5642 141.145 45.3147C141.293 45.0573 141.367 44.7765 141.367 44.4723ZM152.271 31.9655V49H148.176V31.9655H152.271ZM162.905 35.5456L158.752 49H154.341L160.6 31.9655H163.396L162.905 35.5456ZM166.344 49L162.179 35.5456L161.641 31.9655H164.473L170.767 49H166.344ZM166.181 42.6472V45.8177H157.441V42.6472H166.181Z" fill="white"/>
<defs>
<clipPath id="clip0_3705_185">
<rect width="49.0255" height="49" fill="white" transform="translate(0.0144043)"/>
</clipPath>
</defs>
</svg>
