<svg width="55" height="47" viewBox="0 0 55 47" fill="none" xmlns="http://www.w3.org/2000/svg">
<path d="M29.5 0.000203508C24.5611 0.00577128 19.9635 2.52916 17.2969 6.69858C14.6307 10.8676 14.2612 16.1104 16.3166 20.6139L29.4994 47L42.6994 20.5783C44.7402 16.0753 44.3606 10.8411 41.6921 6.68127C39.024 2.52142 34.432 0.00498857 29.5 0.000203508ZM29.5 21.8791C27.5588 21.8791 25.6968 21.106 24.3243 19.7292C22.9514 18.3527 22.1801 16.4857 22.1801 14.539C22.1801 12.5922 22.9514 10.7251 24.3243 9.34828C25.6969 7.97181 27.5588 7.19836 29.5 7.19836C31.4412 7.19836 33.3032 7.97188 34.6756 9.34828C36.0485 10.7251 36.8199 12.5922 36.8199 14.539C36.8152 16.484 36.0422 18.3485 34.6705 19.7241C33.2991 21.0998 31.4401 21.8748 29.5 21.8791Z" fill="#BE0026"/>
</svg>
