<svg width="588" height="821" fill="none" xmlns="http://www.w3.org/2000/svg"><path clip-rule="evenodd" d="M-241-219c-1-22-32-47-46-60-26-26-54-50-82-74-27-24-55-48-81-74-17-18-37-37-49-62-24-52 53-44 73-45 52-3 110-2 158-29 29-16 40-44 34-83-2-13-8-28-3-41 6-13 18-21 28-26 37-19 79-21 118-24 43-2 85-1 127-2 18 0 36-8 53-15l66-29c49-21 98-44 150-49 32-3 67 1 92 31 12 15 19 37 26 56l26 71c30 75-228 131-158 135-167 16 30 69 40 69 7 0-152 49-150 58 6 23 99 41 91 59-18 40 143 34 125 74-13 26 130 24 130 55 0 28-79 72-63 86 14 13-69 0-67 27 0 12 74 27 67 35-12 14 111 28 101 44-18 27-32 64-30 101 2 25 13 41 27 57 5 7 10 11 10 22 1 17-4 35-8 51a998 998 0 0 1-100 235c-10 14-24 31-40 31-18 0-37-8-54-15A3730 3730 0 0 1 51 303c-52-27-105-54-154-90-9-7-18-15-26-24-9-10-20-15-31-18-69-20-145-4-214 5l-53 7c-15 1-34 6-48-1-29-12-4-59 7-78 38-66 86-122 132-180 21-27 43-55 63-84 11-15 32-39 32-59Z" stroke="#5BE7C3" stroke-width="2"/><path clip-rule="evenodd" d="M-228-222c-12-24-32-42-49-58l-74-69c-24-22-47-44-69-69-13-15-29-33-36-56-13-48 60-41 78-42 44-3 95-4 136-29 26-16 37-43 31-79-2-13-5-24-1-37 5-14 17-23 28-30 33-20 72-24 108-28 37-3 76-6 112-3 14 1 31-5 45-10l65-23c45-16 90-31 136-33 33-1 68 6 96 32s40 67 56 106c26 67 63 149 125 163 9 2 18 1 28 2 5 0-403 16-401 22 6 16 37 32 31 45-16 34 125 74 108 108-14 26 84 61 79 93-6 39 126 54 141 81 25 48-23 75-46 97-27 26-50 73-25 113 9 16 20 25 24 45 7 31 2 67-3 98-8 46-21 92-38 134-12 30-32 77-62 74-20-3-40-11-60-19A2400 2400 0 0 1 53 265C9 240-113 134-122 131c-27-12-58-10-87-8-37 2-74 8-112 14-17 3-35 6-53 7-13 1-30 2-41-8-21-19 3-62 13-81 30-56 69-105 106-155 17-25 36-49 52-76 6-10 23-32 16-46Z" stroke="#5ACEF2" stroke-width="2"/><path clip-rule="evenodd" d="M-212-235c-32-47-76-82-113-122-19-20-38-40-55-64-8-12-19-28-21-45-4-46 62-40 81-42 38-3 81-6 116-29 21-14 31-38 27-69-1-14-4-25 0-39 5-13 14-23 24-30 27-21 61-28 92-33 36-5 73-8 109-6 32 1 64-12 95-20 41-11 83-20 126-19 33 1 67 10 95 34 29 24 47 60 62 100 24 59 54 138 106 160 7 3 15 4 22 4 4 1 9 1 11 6 4 12-12 37-17 45l-46 80c-15 25-30 51-39 80-14 47 31 74 30 119-1 27-21 47-37 61-20 17-48 28-57 58-8 23 4 37 13 54 14 29 15 69 14 103-2 46-10 93-24 135-7 20-14 39-26 54-10 14-20 18-35 15-43-9-87-33-129-55-53-27-104-58-155-92-34-23-69-47-99-79-8-9-16-18-22-29-4-8-6-15-13-20-22-14-52-10-75-9-37 3-74 9-111 14-21 4-62 14-79-11-15-21 3-57 12-76 23-48 53-89 81-132 12-20 25-40 36-61 2-6 7-13 8-20 0-8-4-14-7-20Z" stroke="#5BE7C3" stroke-width="2"/><path clip-rule="evenodd" d="M-210-224c-29-42-64-76-96-115-14-18-28-36-39-58-5-11-12-26-10-40 5-41 59-38 80-40 33-4 70-7 99-30 19-14 26-36 22-63-4-30 5-52 24-68 24-21 54-29 82-35 34-8 68-11 102-10 33 1 65-6 98-11 43-7 88-10 131 3 38 12 72 36 97 75 27 40 40 90 61 134 14 28 33 64 58 75 8 4 23-1 17 16-4 10-11 19-17 28l-28 39c-20 28-41 56-56 89-18 42 9 74 6 117-2 22-14 40-27 55-8 9-17 17-26 24-9 8-21 14-29 24-12 15-7 32-5 50a528 528 0 0 1-20 217c-5 14-11 29-21 39-10 9-20 9-31 6-34-9-67-28-99-47-39-24-78-50-115-80-26-20-52-43-73-71-6-8-12-16-17-26-3-7-5-15-10-20-15-16-45-11-62-10-35 1-70 10-105 12-19 1-48 4-62-17-14-20-2-52 6-71 16-38 36-72 55-108 8-14 16-30 21-46 4-15-3-26-11-37Z" stroke="#5ACEF2" stroke-width="2"/><path clip-rule="evenodd" d="M-202-223c-24-37-52-70-75-107-14-22-38-59-27-90 12-34 52-35 76-38 28-3 60-7 84-29 8-6 14-15 17-27 3-13 0-24-1-36-1-26 11-48 27-62 22-21 50-30 77-37 30-8 60-12 90-11l87-2c38-1 77 1 114 14 36 13 69 38 95 74 25 35 42 78 57 122 9 25 23 63 43 75 9 6 18 6 9 20-13 18-29 33-43 49-20 23-41 46-57 73a93 93 0 0 0-15 56c0 17 3 34 2 51-4 40-27 67-49 93-13 16-26 29-33 52-8 28-11 58-17 87-6 31-13 64-26 92-12 24-26 35-48 29-33-11-66-36-96-60S29 114 4 81c-14-18-23-39-35-58-15-24-49-15-70-13-33 3-140 29-130-53 4-34 20-66 32-96 5-13 12-28 13-42 1-16-9-31-16-42Z" stroke="#FF8062" stroke-width="2"/><path clip-rule="evenodd" d="M-190-220c-18-33-39-65-55-101-9-23-19-55-6-79 14-28 46-35 69-38 24-4 53-7 73-28 6-7 11-16 12-27s-2-21-1-32c2-24 13-43 27-58 42-42 105-51 155-52 26-1 52 2 77 4 33 3 66 8 98 22 67 30 112 95 143 176 10 26 17 54 33 74 8 11 6 19-2 28-13 15-28 27-42 40-21 18-41 36-59 57a92 92 0 0 0-24 52l-2 48c-2 30-10 60-23 85-10 20-23 38-35 56-17 22-31 45-44 72-16 35-40 100-79 83C81 143 40 94 12 48 3 32-5 13-17 1c-19-17-38-17-61-17-34 0-107 10-108-57 0-26 9-51 13-76 4-29-5-48-17-71Z" stroke="#F1B170" stroke-width="2"/><path clip-rule="evenodd" d="M-177-217c-18-43-57-115-27-164 16-25 44-35 67-41 19-4 42-6 57-26 10-14 5-35 9-53 5-23 17-41 31-55 39-39 94-50 142-53 49-2 103 10 149 33 58 30 101 85 132 155l16 40c3 9 9 17 12 26 4 16-1 28-10 39-13 14-29 24-44 35-20 15-40 30-59 47-12 12-25 25-30 45-3 14-3 29-3 43 0 31-1 56-12 84-18 47-46 88-75 123-23 27-59 70-93 52-30-17-47-56-67-87C8 10-2-4-15-15a87 87 0 0 0-50-22c-32-3-80-4-90-55-3-18-1-38-3-56-3-25-10-47-19-69Z" stroke="#5BE7C3" stroke-width="2"/><path clip-rule="evenodd" d="M-159-215c-12-48-29-108 2-150 14-21 35-32 55-41 14-6 37-8 46-27 6-14 7-33 13-48 8-20 20-37 34-51 37-34 85-47 129-51 96-8 193 57 245 166 15 32 34 67 10 100-27 36-68 52-100 78-12 10-28 22-35 39-4 11-4 24-4 36-1 30-2 56-12 84-14 43-36 83-61 115-22 29-54 62-86 42C52 61 37 28 18 3-4-24-30-43-59-52c-28-8-59-14-74-51-5-13-10-30-12-44-3-23-8-46-14-68Z" stroke="#FF8062" stroke-width="2"/><path clip-rule="evenodd" d="M-138-215c-6-48-7-98 20-136 13-18 29-31 45-42 12-8 24-15 33-29l22-41c10-17 23-32 37-44a220 220 0 0 1 180-47 278 278 0 0 1 148 134c16 31 25 62 4 93-24 36-60 56-90 79-21 16-44 31-48 65A321 321 0 0 1 148-6c-20 26-46 48-74 35C51 18 33-7 13-24-9-44-33-55-59-64a102 102 0 0 1-68-62c-3-7-3-15-4-23-1-22-5-44-7-66Z" stroke="#F1B170" stroke-width="2"/><path clip-rule="evenodd" d="M263 644c-40 32-86 59-129 86C71 769 7 808-59 837c-35 16-108-202-146-215-14-4 12 70 0 61-17-12-47 129-64 118-35-24-70-47-104-72-17-12-33-27-50-37-10-6-22-3-33-3l-74 4c-31 2-61 4-92 3-13 0-47 3-55-13-4-8 6-23 10-30l27-36c22-27 44-52 63-82 10-15 23-34 17-55-7-21-18-39-25-60-8-24-11-49-15-75-2-19-9-35-15-53-6-19-13-38-18-59-3-13-8-37 3-46 15-12 43-2 60 1l72 17c17 4 34 8 52 9 28 0 56-2 85-5 52-4 104-10 156-10 46 0 152 70 177 82 49 25 100 48 147 81 13 9 32 21 39 39 4 11 2 18 12 25 13 10 30 14 45 18l71 20c48 13 95 28 143 42 15 4 32 5 46 12 9 5 8 11 1 19-12 13-29 20-43 27-21 11-42 21-64 30l-63 28c-14 6-30 12-43 22Z" stroke="#FF8062" stroke-width="2"/><path clip-rule="evenodd" d="M230 637c-43 32-90 58-136 83-58 32-118 62-180 82-36 12-79 25-115 12-14-5-24-16-35-26l-39-30c-28-21-56-40-84-59-15-10-31-24-48-27-13-3-29 1-42 2l-73 6c-28 2-56 4-84 4-15 0-42 3-53-10-10-12 25-54 32-62 19-25 39-49 57-75 11-16 23-35 28-56 4-18-4-38-8-54l-16-62c-6-18-15-34-22-50-9-18-18-36-24-56-4-12-11-32-3-43 9-14 37-5 48-3 24 4 46 9 69 15 39 8 75 16 114 14l152-11c18-1 37-3 56-2 11 0 19 5 25 15 8 13 28 20 42 28l64 34c47 25 95 48 140 80 14 10 30 21 41 38 5 9 4 18 8 28 4 13 20 19 29 23a918 918 0 0 0 181 44c10 1 49 6 29 27-23 25-56 36-83 50-24 12-48 24-70 41Z" stroke="#5BE7C3" stroke-width="2"/><path clip-rule="evenodd" d="M171 631c-40 28-85 49-128 70-52 24-106 46-161 59-35 7-73 13-107 0-23-8-42-32-62-48-21-17-42-32-64-45-14-8-29-16-44-15l-111 12c-24 2-49 3-74 3-15 0-35 1-48-9-15-12 63-109 70-120 18-27 41-64 37-103-3-37-18-65-35-94-9-17-39-61-28-83 6-12 27-8 37-7l59 8c29 5 58 12 87 14 20 1 40-1 60-1l87 1c24 0 48 0 72 3 15 2 27 6 37 18 10 10 24 16 36 23l59 31c42 22 84 43 124 70 18 12 48 29 53 59 1 11 2 15 10 21 11 9 25 13 38 16 29 8 59 7 89 15 12 3 27 10 14 26-16 18-40 29-59 40-9 6-19 11-28 18l-20 18Z" stroke="#5ACEF2" stroke-width="2"/><path clip-rule="evenodd" d="M95 622c-37 23-77 40-117 55-44 17-89 31-134 36-32 5-65 6-96-7-19-8-32-24-49-38-25-22-52-38-82-34a1518 1518 0 0 1-164 11c-13 0-29-1-41-9-15-10 42-89 49-101 18-29 31-59 38-94 6-29-6-52-19-73-8-14-34-47-26-65 4-9 19-9 27-9h45c22 1 46-4 68 0 49 8 97 15 146 20 27 3 55 6 82 12 9 2 19 4 28 9 6 3 9 8 14 12 24 21 55 31 81 44 36 17 71 34 106 55 18 10 43 23 55 45 4 6 3 12 5 18 3 7 11 9 16 11 12 5 63 12 40 39-11 13-26 22-38 32l-13 12c-6 9-13 13-21 19Z" stroke="#F1B170" stroke-width="2"/><path clip-rule="evenodd" d="M14 612c-73 37-159 63-239 58-26-2-55-8-78-26-13-11-24-24-41-28-11-3-24 0-36 2a1858 1858 0 0 1-115 6c-15 0-36 0-50-11-15-12 25-73 30-84 14-26 24-51 27-82 1-10 5-19 4-28 0-10-5-18-9-25-5-10-23-33-18-45 3-7 14-7 19-9l33-6c18-3 36-15 54-15 49 1 99 21 147 32 28 7 57 13 85 22l27 10c6 4 10 10 15 13 21 15 46 23 68 33l88 38c18 9 42 16 57 31 12 12 4 15-2 26-3 5-2 10-4 17-2 8-7 15-12 20-7 8-16 14-22 24l-4 10c-5 9-17 13-24 17Z" stroke="#FF8062" stroke-width="2"/><path clip-rule="evenodd" d="M-64 598c-59 24-125 37-188 31-22-2-44-7-64-18-10-5-17-11-27-11-23-1-47 2-70 2-17 1-34 1-51-1-11-1-26-3-36-12-13-13 11-58 16-70 8-21 16-44 13-68l-3-21c0-6 1-12-1-18-2-8-12-20-8-27 2-4 8-5 13-6l20-10c7-4 13-11 21-14 11-6 25-6 37-6 50 0 100 13 148 26 26 7 51 15 75 25 8 4 16 7 23 13l11 11c40 24 85 33 127 50 11 5 72 27 40 49-19 13-39 19-57 36-5 6-9 10-11 18-1 6 2 3-3 9-5 7-18 10-25 12Z" stroke="#F1B170" stroke-width="2"/></svg>