<svg width="784" height="426" fill="none" xmlns="http://www.w3.org/2000/svg"><path clip-rule="evenodd" d="M511 525c-1-22-32-46-46-59-26-25-54-48-82-72-27-24-55-47-81-73-17-17-37-36-49-60-24-51 53-44 73-45 52-3 110-2 158-28 29-16 40-43 34-82-2-13-8-27-3-39 6-14 18-21 28-26 37-19 79-21 118-23 43-3 85-2 127-2 18-1 60 114 60 63 22-9 22-3 44-12 48-21 111-21 163-26 32-4 87 14 87 14h18s32 1 41 24c30 74 73 146 143 149 10 1 20-1 31-1 7-1 12 2 15 11 6 22-13 58-21 76l-56 115c-13 26-34 60-34 91 0 28 28 48 43 61s41 31 43 57c0 12-6 23-13 31-11 14-25 24-35 40-18 26-32 63-30 98 2 25 13 41 27 56 5 7 10 12 10 22 1 17-4 34-8 50a966 966 0 0 1-100 231c-10 14-24 30-40 30-18 0-37-8-54-14a3763 3763 0 0 1-319-144c-52-27-105-54-154-89-9-7-18-15-26-24-9-10-20-14-31-17-69-20-145-5-214 5l-53 6c-15 2-34 6-48 0-29-13-4-58 7-77 38-65 86-120 132-177 21-26 43-53 63-82 11-14 32-38 32-58Z" stroke="#5BE7C3" stroke-width="2"/><path clip-rule="evenodd" d="M524 522c-12-23-32-41-49-57l-74-68c-24-21-47-43-69-67-13-15-29-33-36-55-13-47 60-40 78-41 44-3 95-4 136-29 26-16 37-41 31-77-2-13-5-23-1-36 5-14 17-23 28-29 33-20 72-24 108-28 37-3 76-6 112-3 14 1 54 58 54 31 22-7 25 7 47 0 44-16 91-12 137-13 33-2 63 7 91 33s53-19 69 19c27 66 63 146 125 160 9 3 18 1 28 2 5 0 10 1 13 7 6 16-12 45-17 58l-52 99c-13 27-31 56-36 87-6 38 35 65 50 92 25 46-23 73-46 95-27 25-50 72-25 111 9 15 20 24 24 43 7 31 2 66-3 96-8 46-21 91-38 132-12 30-32 76-62 72-20-2-40-10-60-18a2415 2415 0 0 1-282-138c-44-25-166-128-175-132-27-11-58-9-87-7-37 2-74 8-112 13-17 3-35 6-53 7-13 1-30 2-41-8-21-18 3-61 13-79 30-55 69-103 106-152 17-24 36-48 52-74 6-11 23-32 16-46Z" stroke="#5ACEF2" stroke-width="2"/><path clip-rule="evenodd" d="M540 510c-32-47-76-81-113-120-19-20-38-40-55-63-8-12-19-27-21-44-4-45 62-39 81-41 38-3 81-6 116-29 21-14 31-37 27-67-1-14-4-25 0-38 5-14 14-23 24-30 27-21 61-27 92-32 36-6 73-8 109-7 32 1 64-11 95-19 41-10 83-20 126-18 33 1 67 10 95 33 29 24 47 59 62 97 24 58 54 136 106 158 7 3 15 3 22 4 4 0 9 0 11 5 4 13-12 37-17 45l-46 78c-15 25-30 50-39 79-14 46 31 73 30 116-1 27-21 47-37 60-20 16-48 27-57 57-8 23 4 36 13 53 14 29 15 68 14 101-2 45-10 91-24 133-7 18-14 38-26 53-10 13-20 17-35 14-43-9-87-33-129-54-53-27-104-56-155-90-34-23-69-47-99-78-8-8-16-17-22-28-4-8-6-15-13-19-22-14-52-11-75-9-37 2-74 8-111 14-21 3-62 13-79-11-15-21 3-57 12-75 23-47 53-88 81-130 12-19 25-38 36-60 2-5 7-12 8-19 0-8-4-13-7-19Z" stroke="#5BE7C3" stroke-width="2"/><path clip-rule="evenodd" d="M542 521c-29-41-64-75-96-114-14-17-28-35-39-56-5-12-12-26-10-40 5-40 59-37 80-39 33-4 70-7 99-29 19-14 26-35 22-62-4-30 5-51 24-67 24-20 54-29 82-35 34-7 68-10 102-9 33 1 65-6 98-11 43-6 88-9 131 4 38 11 72 35 97 72 27 40 40 89 61 132 14 28 33 63 58 74 8 3 23-1 17 16-4 10-11 18-17 26l-28 39c-20 27-41 55-56 88-18 41 9 72 6 114-2 22-14 40-27 54-8 9-17 17-26 24-9 8-21 13-29 23-12 14-7 31-5 49a507 507 0 0 1-20 213c-5 14-11 29-21 38s-20 9-31 6c-34-8-67-28-99-46-39-23-78-49-115-78-26-20-52-42-73-70-6-8-12-16-17-26-3-6-5-15-10-19-15-16-45-11-62-10-35 1-70 10-105 12-19 1-48 4-62-17-14-20-2-51 6-70 16-37 36-70 55-105 8-14 16-29 21-46 4-14-3-25-11-35Z" stroke="#5ACEF2" stroke-width="2"/><path clip-rule="evenodd" d="M550 521c-24-36-52-68-75-105-14-21-38-58-27-88 12-33 52-34 76-37 28-3 60-8 84-28 8-7 14-16 17-27 3-13 0-23-1-36-1-25 11-46 27-60 22-21 50-30 77-37 30-7 60-11 90-11l87-1c38-2 77 0 114 14 36 12 69 37 95 72 25 35 42 77 57 120 9 25 23 61 43 73 9 6 18 6 9 20-13 18-29 32-43 48-20 22-41 45-57 71a90 90 0 0 0-15 55c0 17 3 33 2 50-4 39-27 66-49 91-13 16-26 29-33 52-8 27-11 56-17 84-6 31-13 63-26 91-12 24-26 35-48 28-33-10-66-35-96-58-30-24-60-50-85-83-14-17-23-38-35-57-15-23-49-14-70-12-33 3-140 28-130-53 4-33 20-64 32-94 5-12 12-27 13-41 1-15-9-30-16-41Z" stroke="#FF8062" stroke-width="2"/><path clip-rule="evenodd" d="M562 524c-18-32-39-63-55-99-9-23-19-53-6-78 14-27 46-34 69-37 24-4 53-7 73-27 6-7 11-16 12-27 1-10-2-20-1-31 2-23 13-42 27-56 42-42 105-51 155-52 26-1 52 2 77 4 33 3 66 8 98 22 67 29 112 93 143 173 10 25 17 52 33 72 8 11 6 18-2 28-13 14-28 26-42 38-21 18-41 36-59 57a90 90 0 0 0-24 50l-2 47c-2 30-10 59-23 84-10 20-23 37-35 54-17 22-31 45-44 71-16 35-40 98-79 82-44-19-85-67-113-113-9-15-17-34-29-45-19-17-38-17-61-17-34 1-107 10-108-55 0-26 9-51 13-76 4-27-5-46-17-69Z" stroke="#F1B170" stroke-width="2"/><path clip-rule="evenodd" d="M575 527c-18-42-57-113-27-160 16-25 44-35 67-40 19-5 42-7 57-26 10-14 5-35 9-53 5-22 17-40 31-53 39-38 94-50 142-52 49-3 103 9 149 32 58 29 101 83 132 152l16 39c3 9 9 17 12 26 4 15-1 28-10 38-13 14-29 24-44 35-20 14-40 28-59 46-12 11-25 24-30 44-3 13-3 28-3 42 0 30-1 55-12 82-18 46-46 87-75 121-23 27-59 68-93 50-30-16-47-54-67-85-10-15-20-29-33-40a87 87 0 0 0-50-21c-32-4-80-5-90-54-3-18-1-37-3-56-3-24-10-45-19-67Z" stroke="#5BE7C3" stroke-width="2"/><path clip-rule="evenodd" d="M593 529c-12-47-29-106 2-147 14-21 35-32 55-40 14-6 37-8 46-27 6-13 7-32 13-47 8-20 20-36 34-49 37-34 85-47 129-51 96-8 193 57 245 163 15 31 34 65 10 98-27 35-68 51-100 77-12 9-28 21-35 38-4 10-4 23-4 35-1 29-2 55-12 83-14 42-36 81-61 113-22 27-54 60-86 40-25-15-40-48-59-72-22-27-48-45-77-54-28-8-59-14-74-51-5-12-10-28-12-42-3-23-8-45-14-67Z" stroke="#FF8062" stroke-width="2"/><path clip-rule="evenodd" d="M614 529c-6-47-7-96 20-134 13-17 29-29 45-40 12-9 24-16 33-29l22-40c10-17 23-32 37-43a223 223 0 0 1 180-46 274 274 0 0 1 148 131c16 31 25 61 4 92-24 35-60 54-90 77-21 15-44 30-48 64a313 313 0 0 1-65 174c-20 25-46 46-74 33-23-11-41-35-61-52-22-19-46-30-72-38a102 102 0 0 1-68-62c-3-7-3-14-4-22-1-22-5-43-7-65Z" stroke="#F1B170" stroke-width="2"/><path clip-rule="evenodd" d="M636 525c1-44 9-87 32-122 10-15 21-27 32-41 9-11 17-21 27-30 24-22 43-50 68-69a237 237 0 0 1 166-46c17 2 32 12 46 22 29 19 56 45 74 79 40 75-39 130-80 162-18 15-47 32-55 61-5 21-9 42-16 62-19 54-57 118-109 109-22-3-42-18-62-28-21-10-43-16-65-22-21-6-37-14-50-36-6-11-6-24-6-37l-2-64Z" stroke="#5BE7C3" stroke-width="2"/><path clip-rule="evenodd" d="M657 520c8-68 39-142 84-181 53-47 110-86 173-97 30-5 62-8 90 9 21 13 45 33 57 60 28 66-35 119-71 150-19 16-44 32-58 57-9 14-13 32-20 48-21 46-55 84-97 91-20 3-40-1-59-4-20-3-41-5-60-9-16-4-35-10-41-32-7-27-2-65 2-92Z" stroke="#5ACEF2" stroke-width="2"/><path clip-rule="evenodd" d="M677 509c12-64 37-126 80-164 23-20 49-34 75-48 28-16 58-28 89-34 38-7 100-14 120 42s-30 106-60 134c-19 18-39 34-57 54-10 11-18 23-26 35-23 35-56 63-89 77-32 15-72 21-106 16-15-2-26-9-30-28-6-27-1-58 4-84Z" stroke="#F1B170" stroke-width="2"/><path clip-rule="evenodd" d="M697 492c12-56 38-108 75-141 42-38 97-59 147-70 26-5 84-21 97 23 14 44-26 87-48 111a1323 1323 0 0 1-167 146c-15 10-31 18-48 24-13 5-28 11-41 8-33-9-21-75-15-101Z" stroke="#FF8062" stroke-width="2"/><path clip-rule="evenodd" d="M721 475a239 239 0 0 1 190-177c18-4 71-19 81 13s-22 69-37 87c-46 54-104 95-158 135-17 13-48 40-69 27-23-13-12-63-7-85Z" stroke="#5ACEF2" stroke-width="2"/><path clip-rule="evenodd" d="M748 454c23-78 89-123 150-137 15-4 53-15 65 7 10 20-15 49-24 61-21 25-46 47-70 67-23 19-45 39-69 55-13 8-36 26-50 13-15-14-7-48-2-66Z" stroke="#5ACEF2" stroke-width="2"/><path clip-rule="evenodd" d="M778 432c17-51 64-85 105-96 11-3 35-10 44 3s-5 31-11 40c-27 38-67 71-104 92-9 5-25 15-35 5-10-11-3-33 1-44Z" stroke="#5BE7C3" stroke-width="2"/><path clip-rule="evenodd" d="M15 586C14 536-6 484 4 433c8-42 50-46 75-65 20-15 32-42 42-67l29-70c7-14 18-43 33-43 13-1 26 21 34 35l30 53c17 29 37 51 61 72 26 24 54 46 81 68l60 50c12 12 39 32 40 53 0 10-8 21-12 29l-27 37-54 65c-24 28-46 55-66 86-22 33-42 67-63 100-14 23-28 48-48 62-26 17-46-1-72-1-22-1-20-67-23-85-3-19-9-36-12-55-3-23-3-47-3-71-1-28-2-56-26-67-13-6-28-7-42-11-9-2-26-7-26-22Z" stroke="#FF8062" stroke-width="2"/><path clip-rule="evenodd" d="M26 577c-3-42-16-96-3-139 11-37 45-42 68-61 20-17 28-43 38-69 8-20 15-41 24-61 6-15 16-40 29-43 12-3 25 19 32 31 10 16 18 34 27 51 15 31 31 58 54 80 22 23 47 40 72 57 19 14 38 28 57 44 14 12 33 27 40 48 5 16-21 44-28 54-15 20-32 38-48 57-20 23-40 43-58 69-31 46-58 104-98 138a99 99 0 0 1-79 23c-10-1-13-21-14-32-3-19-3-38-5-58-1-17-5-34-8-52l-6-54c-1-11-2-24-8-33s-16-13-25-16c-16-5-60-5-61-34Z" stroke="#5BE7C3" stroke-width="2"/><path clip-rule="evenodd" d="M40 559c-4-38-10-86 6-122 13-29 41-35 61-54 16-16 22-41 30-64l22-56c6-14 14-33 26-37 11-5 22 14 28 23 10 16 18 33 26 50 13 28 25 58 44 81 18 23 39 36 61 51 17 11 33 23 49 36 12 10 27 23 33 40 6 15-8 32-15 43l-37 49c-14 17-29 33-42 51-28 37-50 78-84 106-22 18-52 35-78 32-19-2-18-56-20-73-3-28-9-58-18-84-8-22-26-29-43-34-11-3-22-5-33-10-12-5-15-12-16-28Z" stroke="#5ACEF2" stroke-width="2"/><path clip-rule="evenodd" d="M53 541c-3-32-2-71 13-99 13-25 36-31 53-51 13-15 18-40 25-60 9-24 21-69 42-79 20-8 41 47 49 63 11 26 21 54 35 78 12 21 28 32 45 44 22 16 55 34 66 65 9 22-19 56-29 72s-18 35-28 51c-16 25-43 45-65 61-21 15-49 31-73 30-16-1-19-32-22-48-5-22-12-42-26-57s-31-22-48-29c-9-3-19-5-27-12-9-7-9-16-10-29Z" stroke="#F1B170" stroke-width="2"/><path clip-rule="evenodd" d="M69 522c0-28 5-58 19-80 13-18 32-24 44-42 9-15 14-35 20-52 8-21 18-57 37-65 19-7 35 33 42 49 11 23 19 48 30 71 8 18 18 30 31 42 16 14 38 29 46 52 6 16-8 42-14 57-3 10-7 20-8 30-2 8-2 16-6 23-10 18-32 20-48 26-20 8-41 17-62 18-13 1-20-14-27-25-9-13-21-22-32-31-14-13-30-21-46-29-7-4-15-8-21-15-6-8-5-19-5-29Z" stroke="#FF8062" stroke-width="2"/><path clip-rule="evenodd" d="M85 506c3-24 11-47 24-63 11-13 24-20 32-36 8-14 14-30 20-46 7-16 17-43 32-48 17-4 30 23 37 38 9 19 16 40 24 60 6 15 14 28 23 40 10 12 23 24 28 41 4 16-4 34-6 49-1 17 1 34-7 48-17 29-61 24-86 24-24 1-44-17-64-34l-40-31c-14-10-19-22-17-42Z" stroke="#5ACEF2" stroke-width="2"/><path clip-rule="evenodd" d="M101 492c7-34 31-52 48-78 14-21 24-65 47-71 27-7 42 52 52 74 10 25 28 45 35 71 4 14 1 27-1 41-2 15-4 30-12 43-16 24-47 24-69 24-23 1-43-16-61-32-19-17-47-37-39-72Z" stroke="#5ACEF2" stroke-width="2"/><path clip-rule="evenodd" d="M113 483c9-25 27-44 41-63 12-16 25-47 44-49 22-3 35 31 43 51 9 20 21 42 26 64 4 23-9 54-21 70a66 66 0 0 1-55 25c-21-1-39-16-55-32-16-17-33-38-23-66Z" stroke="#FF8062" stroke-width="2"/><path clip-rule="evenodd" d="M125 478c8-20 22-37 35-53 10-11 25-31 40-32 16 0 29 16 35 34 7 17 13 38 14 57 2 41-39 86-70 82-30-3-70-47-54-88Z" stroke="#5ACEF2" stroke-width="2"/><path clip-rule="evenodd" d="M136 476c11-26 38-64 64-65 29-1 36 41 32 71-4 31-37 76-64 70-26-6-45-45-32-76Z" stroke="#5BE7C3" stroke-width="2"/></svg>