<svg width="52" height="53" viewBox="0 0 52 53" fill="none" xmlns="http://www.w3.org/2000/svg">
<path d="M49.0412 0.508453L26.0001 23.5496L2.95904 0.508453C2.2811 -0.169484 1.1853 -0.169484 0.508453 0.508453C-0.169484 1.18639 -0.169484 2.28219 0.508453 2.95904L24.7747 27.2253C25.112 27.5637 25.556 27.7335 26 27.7335C26.444 27.7335 26.888 27.5637 27.2253 27.2253L51.4915 2.95904C52.1695 2.2811 52.1695 1.1853 51.4915 0.508453C50.8147 -0.169484 49.7192 -0.169484 49.0412 0.508453Z" fill="#BE0026"/>
<path d="M49.0412 24.7751L26.0001 47.8161L2.95904 24.7751C2.2811 24.0971 1.1853 24.0971 0.508453 24.7751C-0.169484 25.453 -0.169484 26.5488 0.508453 27.2256L24.7747 51.4919C25.112 51.8303 25.556 52.0012 26 52.0012C26.444 52.0012 26.888 51.8314 27.2253 51.493L51.4915 27.2267C52.1695 26.5488 52.1695 25.453 51.4915 24.7761C50.8147 24.0971 49.7192 24.0971 49.0412 24.7751Z" fill="#BE0026"/>
</svg>
