<svg width="186" height="97" viewBox="0 0 186 97" fill="none" xmlns="http://www.w3.org/2000/svg">
<path d="M7.44177 11.4195L45.6227 11.9101L48.2118 8.53927L54.0964 12.87C55.7751 14.3099 55.1967 15.2953 52.3612 15.8262L51.4865 83.8963C47.7661 87.2526 45.926 87.3707 45.966 84.2509L46.0644 76.593L5.76237 76.0751L5.59837 88.8383C1.87796 92.1945 0.0377968 92.3127 0.0778857 89.1928L1.13842 6.65788L7.44177 11.4195ZM46.8626 14.4791L6.5605 13.9612L6.2161 40.7638L46.5182 41.2816L46.8626 14.4791ZM46.4854 43.8343L6.1833 43.3164L5.79517 73.5225L46.0972 74.0404L46.4854 43.8343ZM130.58 70.4453L110.641 70.1891L110.673 67.6365L130.612 67.8927L131.05 33.8577C117.477 55.526 102.287 70.9328 85.4798 80.078C83.7792 80.3398 83.3623 79.7671 84.229 78.3599C101.924 66.1057 116.433 48.7045 127.754 26.1562L88.3007 25.6492L88.3335 23.0966L131.181 23.6472L131.476 0.673507L138.672 2.04249C140.916 3.48969 140.338 4.47511 136.936 4.99875L136.696 23.718L168.089 24.1214L174.535 17.8216L182.519 23.8813C184.197 25.3212 184.184 26.3139 182.48 26.8594L138.784 26.2979C149.534 48.2788 165.177 63.6562 185.713 72.4303C182.022 73.5176 179.453 75.3284 178.006 77.8629C159.196 66.8416 145.411 49.9278 136.652 27.1215L136.127 67.9636L145.461 68.0835L151.047 62.6237L157.769 67.8161C159.447 69.2561 159.435 70.2488 157.73 70.7942L136.095 70.5162L135.788 94.3407C132.068 97.697 130.228 97.8152 130.268 94.6953L130.58 70.4453Z" fill="black" fill-opacity="0.2"/>
</svg>
