<svg width="197" height="183" fill="none" xmlns="http://www.w3.org/2000/svg"><path d="M165 113a114 114 0 0 1-30-67 14 14 0 0 0 3 0l2-1v-2l-1-2-7-7-2-2h-3a167 167 0 0 1-90 28l-3 1v3l1 1 2 1h16l5-1-5 9-26 40-1 1v2c-1 1 0 2 1 3h7l2-1 7-11 1-1 4 2 9 5 5 2-1 1-2 4-1 2c-1 2 0 3 1 3l3 1 5-1 1-1h1l19-31h3l2-1 1-2-1-2-3-6v-2h-1v-1h-3l-3 2-9-5-8-4-4-7-1-1a189 189 0 0 0 21-2l-1 3 1 1 7 4 7 4 32 17h3l2-2v-1l-1-2-3-8-1-2-1-1h-1l-2 1-8 1-21-11-5-3-5-2a174 174 0 0 0 44-16 120 120 0 0 0 21 70h6l2-1 7 1h2v-2h-1l-1-1ZM59 82c2-2 5-3 8-2l6 4 2 1c3 1 4 5 2 7l-9 15c-2 2-5 3-7 1l-9-4c-3-2-3-5-2-7l9-15Z" fill="#B62B2B" fill-opacity=".3"/><path d="m148 122 3-1v-4l-3-7-1-1v-1h-4l-3 1-11-6-10-5-1-1-4-5-1-1v-1l-3 1-37 57v1l-1 2 2 3h7l2-1 24-38 3-5 5-7 4 2 14 8 4 2-11 18-1 3-7 9v1h-3a1104 1104 0 0 1-12-6l-2 1v2l1 2a1106 1106 0 0 1 6 8c-1 2-1 4 1 5a10 10 0 0 0 8 1l6-3 4-4 15-24 4-6h2Z" fill="#B62B2B" fill-opacity=".3"/></svg>