<svg width="73" height="82" viewBox="0 0 73 82" fill="none" xmlns="http://www.w3.org/2000/svg">
<path d="M51.1632 36.4626L62.9145 30.8255L66.2784 37.8383L50.7817 45.2719L53.8137 51.5926L69.3104 44.159L72.6731 51.1691L57.1764 58.6027L64.752 74.3953L50.6367 81.1663L43.0612 65.3737L27.752 72.7174L24.3893 65.7073L39.6985 58.3636L36.6665 52.0429L21.3573 59.3866L17.9933 52.3739L29.7393 46.7394L0.198853 26.4204L16.2898 18.7017L30.7764 31.1823C34.447 34.2757 37.1467 37.12 40.0877 39.9591L40.2805 39.8666C40.0032 35.9967 39.4878 31.6237 39.3191 26.9642L38.7966 7.90533L54.5892 0.329773L51.1632 36.4626Z" fill="#BE0026" fill-opacity="0.32"/>
</svg>
